<?xml version="1.0" encoding="UTF-8" standalone="no"?>
<!DOCTYPE svg PUBLIC "-//W3C//DTD SVG 1.1//EN" "http://www.w3.org/Graphics/SVG/1.1/DTD/svg11.dtd">
<svg width="100%" height="100%" viewBox="0 0 247 358" version="1.1" xmlns="http://www.w3.org/2000/svg" xmlns:xlink="http://www.w3.org/1999/xlink" xml:space="preserve" xmlns:serif="http://www.serif.com/" style="fill-rule:evenodd;clip-rule:evenodd;stroke-linejoin:round;stroke-miterlimit:2;">
    <g transform="matrix(1,0,0,1,-117.144913,-100.802613)">
        <g id="Background" transform="matrix(0.390914,0,0,0.390914,97.606337,83.989765)">
            <path d="M247.087,168.372C249.133,163.165 252.623,154.615 253.385,160.527C258.41,199.532 272.289,223.193 309.91,262.115C331.298,284.242 346.359,308.399 347.488,372.5C347.719,385.588 344.55,400.173 346.5,400.257C346.738,400.268 346.681,400.137 348.976,398.601L348.76,399.563C335.046,446.446 319.872,523.004 321.603,586.496C321.728,591.072 322.124,605.582 326.486,643.502C327.309,650.653 336.537,696.321 338.24,699.636C339.859,702.784 339.065,702.973 339.971,706.413C365.676,804.03 406.972,866.258 429.955,897.135C432.129,900.055 444.252,916.342 458.07,932.921C458.91,933.928 469.05,948.401 465.463,940.507C462.226,933.383 456.225,927.48 452.428,909.515C452.273,908.781 452.392,905.096 451.164,903.75C438.816,890.204 412.001,857.443 399.02,833.719C396.014,828.226 382.051,802.706 364.096,763.67C362.138,759.413 360.91,756.743 347.364,707.534C331.968,651.606 329.641,622.108 329.045,614.549C328.26,604.596 325.431,584.724 326.408,559.495C327.36,534.916 326.953,534.94 329.623,510.515C331.006,497.86 331.447,497.981 342.857,437.577C343.085,436.37 353.566,390.287 354.793,386.6C356.801,380.567 356.616,380.609 358.116,374.404C358.657,374.496 358.959,375.203 359.5,375.295C361.147,375.576 362.619,370.446 362.756,369.966C374.31,339.571 384.077,301.588 413.445,267.447C436.321,240.854 462.969,231.993 467.311,230.115C488.847,220.797 490.082,224.215 511.404,214.302C553.448,194.755 556.601,165.428 560.073,173.625C561.163,176.201 550.118,214.85 549.105,218.395C545.952,229.429 529.782,265.836 505.794,285.839C470.62,315.171 435.619,322.607 421.497,330.494C389.309,348.469 388.974,348.558 367.975,373.872C354.425,390.906 356.688,392.202 354.442,400.483C350.115,416.434 333.844,493.162 331.913,514.53C331.689,517.014 329.125,545.382 329.364,545.605C329.705,545.924 330.4,545.539 330.741,545.857C345.604,517.699 366.345,500.985 391.849,477.926C405.842,465.275 405.656,465.208 419.209,452.186C462.913,410.194 488.946,390.597 528.649,375.893C551.619,367.385 592.495,363.228 602.474,363.14C657.2,362.656 667.923,364.317 673.544,365.187C676.584,365.701 676.472,365.805 679.563,366.204C682.176,366.542 682.513,368.879 680.26,370.043C678.95,370.719 667.897,376.427 664.232,379.136C630.036,404.407 632.375,406.995 599.598,441.594C569.259,473.619 532.917,512.052 425.505,528.573C371.371,536.899 347.648,530.524 330.18,556.287C326.766,561.321 331.128,619.386 333.52,624.574C342.413,614.045 372,593.841 414.497,591.403C467.946,588.337 517.071,598.495 536.568,607.35C572.617,623.721 592.257,634.243 631.031,690.827C641.768,706.496 655.629,739.717 677.128,755.867C683.158,760.398 663.73,760.593 662.5,760.605C650.146,760.729 625.228,764.808 581.42,743.664C575.254,740.688 553.902,730.382 513.874,691.126C509.423,686.761 486.212,661.881 457.127,638.929C434.733,621.258 368.948,597.701 340.501,624.502C330.441,633.98 334.046,635.94 336.546,649.491C341.08,674.062 357.953,743.399 373.71,777.38C404.844,844.52 419.528,861.161 442.882,890.161C451.736,901.156 461.018,905.728 468.129,922.669C474.26,937.273 473.825,937.347 478.117,952.591C478.246,953.05 479.025,961.669 472.267,953.694C470.618,951.748 455.59,934.013 451.589,929.425C442.14,918.594 419.784,887.473 417.113,883.755C388.686,844.181 358.168,779.786 344.212,731.604C336.126,703.687 336.008,703.585 334.11,701.948C326.076,695.018 320.343,695.652 316.574,695.941C276.419,706.622 278.87,759.356 240.413,786.379C215.555,803.846 198.212,804.786 188.243,832.407C185.441,840.17 184.303,831.863 184.259,831.54C183.567,826.481 166.068,775.399 214.142,737.046C312.261,658.767 328.99,699.099 333.507,694.508C334.467,693.534 327.543,671.728 323.372,640.513C319.296,610.015 267.977,609.481 247.501,601.498C207.581,585.934 200.983,565.174 182.031,536.802C169.59,518.178 150.828,509.103 161.491,510.589C164.989,511.076 175.578,515.526 206.449,523.678C255.6,536.658 277.141,558.196 281.958,563.012C285.968,567.021 308.414,589.464 320.517,622.48C320.599,622.545 321.542,623.294 321.542,623.294C321.662,623.245 321.555,623.175 321.713,621.686C313.834,565.94 323.513,545.558 318.503,531.499C302.804,487.444 254.775,481.429 209.653,462.137C170.031,445.196 137.287,427.89 100.135,379.796C69.058,339.567 41.475,341.05 52.429,336.338C88.535,320.805 168.556,336.535 206.6,355.32C245.628,374.591 284.274,411.633 300.565,449.47C312.419,477.002 319.59,511.869 320.732,517.424C320.797,517.652 322.615,524.006 322.861,519.5C322.883,519.084 322.314,518.782 322.337,518.367C322.699,516.14 322.237,516.119 326.15,490.427C331.936,452.435 333.006,452.697 342.007,415.322C343.901,407.461 336.694,391.379 327.269,381.733C320.703,375.012 279.558,344.711 250.332,288.583C235.45,260.002 235.714,235.302 235.765,230.513C235.816,225.73 236.102,199.02 245.588,171.532C245.588,171.532 246.967,168.624 247.087,168.372Z" style="fill:rgb(63,60,56);"/>
            <path d="M670.827,367.811C621.077,381.574 605,395.145 599.241,398.001C585.756,404.689 585.788,404.687 537.674,435.742C466.242,481.847 391.48,488.311 343.397,534.359C326.28,550.751 351.353,516.389 385.905,486.983C420.054,457.919 431.904,442.249 459.446,419.434C485.604,397.766 504.303,389.951 509.762,386.971C541.281,369.765 595.927,365.24 612.51,365.97C634.544,366.94 634.516,364.686 656.491,366.614C665.083,367.369 665.425,365.183 670.827,367.811Z" style="fill:rgb(245,246,240);"/>
            <path d="M339.66,541.495C340.954,539.468 359.717,521.596 384.306,509.135C456.074,472.766 475.073,477.413 535.763,439.952C568.011,420.047 567.535,417.298 601.538,399.574C607.461,396.486 612.927,391.073 640.402,380.24C652.505,375.468 667.143,371.107 669.498,370.405C679.109,367.542 666.117,373.6 654.883,381.986C629.79,400.717 622.31,414.851 585.613,451.611C580.935,456.297 561.324,481.797 503.313,506.078C499.049,507.863 455.247,521.445 438.522,523.676C413.543,527.008 413.649,527.416 388.554,529.917C363.58,532.405 362.722,530.06 340.432,541.618L339.66,541.495Z" style="fill:rgb(245,245,240);"/>
            <path d="M370.022,306.4C375.286,274.802 380.13,259.178 378.217,248.544C369.487,200.005 347.713,185.729 337.4,141.523C331.057,114.335 345.96,77.433 364.509,58.508C380.975,41.709 386.627,41.438 385.997,44.529C376.613,90.565 402.147,101.07 409.744,150.467C415.801,189.852 397.297,219.459 387.89,243.637C379.542,265.092 382.864,265.913 370.601,330.52C365.932,355.117 360.446,369.58 361.832,370.209C362.122,370.341 362.466,369.834 362.756,369.966C362.619,370.446 361.147,375.576 359.5,375.295C358.959,375.203 358.657,374.496 358.116,374.404C368.614,328.439 368.95,328.563 369.926,321.228C370.352,319.548 371.364,317.488 371.587,312.425C372.899,305.893 373.202,305.625 372.655,305.5C372.438,305.45 372.462,305.566 370.022,306.4Z" style="fill:rgb(64,61,54);"/>
            <path d="M59.008,340.79C59.417,340.65 59.142,339.754 59.551,339.613C59.685,339.568 73.38,342.885 74.581,343.176C104.496,350.422 104.235,351.167 132.635,363.162C151.296,371.044 157.946,376.381 174.406,384.686C185.005,390.034 226.148,416.448 234.35,423.656C256.155,442.816 268.982,447.714 296.968,484.16C312.003,503.739 324.431,533.473 312.355,513.613C295.494,485.884 252.856,475.383 233.563,468.32C100.715,419.692 119.872,372.81 59.008,340.79Z" style="fill:rgb(241,241,236);"/>
            <path d="M364.366,610.535C367.1,609.468 373.296,605.381 409.511,606.103C459.938,607.108 538.614,641.741 583.428,688.572C634.754,742.209 660.899,752.94 668.972,756.254C668.959,756.278 669.591,757.235 668.361,757.348C659.751,758.137 622.722,763.468 572.75,736.076C551.068,724.192 511.799,684.966 506.906,680.079C461.353,634.575 441.72,621.834 405.422,612.826C393.081,609.763 380.277,607.385 365.756,611.188L364.366,610.535Z" style="fill:rgb(243,244,238);"/>
            <path d="M59.159,336.383C65.966,333.835 94.58,332.088 100.449,332.866C134.393,337.365 189.133,339.101 239.865,380.067C290.425,420.895 298.904,445.938 316.103,506.553C322.437,528.876 313.06,500.549 298.873,482.194C274.947,451.237 259.074,439.88 226.434,414.588C217.97,408.029 200.182,397.42 197.84,396.023C194.114,393.801 184.559,387.401 183.416,386.634C177.142,382.431 149.402,368.203 146.409,366.667C103.161,344.484 63.223,338.427 58.856,337.286L59.159,336.383Z" style="fill:rgb(241,242,236);"/>
            <path d="M382.344,600.047C398.835,595.016 400.839,595.483 422.524,593.677C429.6,593.088 488.352,593.676 525.542,606.386C577.238,624.052 599.5,654.4 605.599,661.417C634.324,694.462 646.403,730.128 667.635,751.432C667.762,751.559 668.791,754.03 665.568,752.324C628.118,732.5 603.107,704.007 583.253,684.745C522.391,625.701 449.825,606.712 418.452,603.945C379.551,600.513 362.571,608.999 362.226,608.971C360.471,608.828 361.715,606.32 382.344,600.047Z" style="fill:rgb(243,244,239);"/>
            <path d="M378.571,49.374C378.544,50.459 378.979,50.438 378.518,51.503C376.22,56.814 371.388,63.57 368.624,91.511C366.732,110.643 373.327,132.172 373.739,132.134C377.21,131.815 370.881,116.078 370.866,101.511C370.862,97.336 370.835,70.322 381.54,50.434C381.989,52.134 382.237,52.03 382.01,53.471C381.392,57.397 378.457,76.038 390.767,102.366C404.073,130.826 403.315,131.2 407.744,157.469C410.928,176.354 399.297,212.709 394.024,222.236C386.837,235.222 384.323,248.054 382.81,246.298C382.614,246.07 382.928,245.627 382.732,245.399C383.033,243.777 383.035,243.788 383.057,243.648C389.711,201.78 383.045,167.961 378.079,143.608C377.622,141.362 376.922,141.938 376.599,141.768C376.321,142.037 376.043,142.305 375.765,142.574C376.247,148.292 384.892,193.048 383.468,211.498C381.164,241.341 381.307,241.353 380.458,243.806C362.569,173.136 324.09,152.609 344.472,97.488C346.108,93.063 356.791,64.172 378.571,49.374Z" style="fill:rgb(243,244,239);"/>
            <path d="M551.877,189.867C557.291,178.925 551.598,195.367 549.513,206.503C549.043,209.009 541.273,235.59 529.623,252.587C526.353,257.358 507.92,293.433 447.393,316.24C376.986,342.77 373.342,367.92 368.093,367.737C367.933,367.731 367.828,367.52 367.668,367.515C371.807,360.454 391.398,335.004 397.75,328.752C441.983,285.22 444.894,288.731 494.787,251.901C519.34,233.777 526.049,224.978 544.402,202.43C548.72,197.126 551.411,190.94 551.877,189.867Z" style="fill:rgb(244,245,239);"/>
            <path d="M249.688,170.308C248.783,177.992 244.822,211.625 271.389,264.555C290.675,302.981 321.078,322.287 340.101,389.564C341.644,395.024 341.917,395.057 341.476,395.482C338.771,398.089 341.208,392.517 329.34,379.646C319,368.432 278.036,340.376 249.021,278.707C248.39,277.367 233.195,251.791 240.917,200.572C241.768,194.929 247.107,174.825 247.698,172.6C248.038,171.32 248.286,171.549 249.688,170.308Z" style="fill:rgb(242,243,237);"/>
            <path d="M548.349,190.174C548.292,191.033 549.211,190.609 549.154,191.482C549.143,191.644 549.133,191.806 548.147,193.243C534.078,213.761 511.705,234.865 508.207,238.164C504.462,241.698 497.707,248.069 456.184,276.064C391.911,319.395 375.201,355.744 369.294,359.594C372.241,352.122 373.44,348.56 373.767,347.588C388.307,304.382 411.341,270.207 427.892,256.961C483.981,212.073 506.249,236.295 548.349,190.174Z" style="fill:rgb(244,245,239);"/>
            <path d="M252.466,171.526C253.714,178.137 255.03,203.915 289.965,245.109C312.888,272.137 340.24,283.878 344.258,358.508C345.233,376.606 344.529,399.132 342.95,392.229C334.185,353.913 322.363,333.472 291.987,293.103C280.584,277.948 257.913,238.194 252.939,199.458C252.66,197.285 249.825,175.202 251.34,172.116C251.527,171.735 252.279,171.907 252.466,171.526Z" style="fill:rgb(243,243,238);"/>
            <path d="M368.631,320.579L369.926,321.228C368.95,328.563 368.614,328.439 358.116,374.404C356.616,380.609 356.801,380.567 354.793,386.6C353.566,390.287 343.085,436.37 342.857,437.577C331.447,497.981 331.006,497.86 329.623,510.515C326.953,534.94 327.36,534.916 326.408,559.495C325.431,584.724 328.26,604.596 329.045,614.549C329.641,622.108 331.968,651.606 347.364,707.534C360.91,756.743 362.138,759.413 364.096,763.67C382.051,802.706 396.014,828.226 399.02,833.719C412.001,857.443 438.816,890.204 451.164,903.75C452.392,905.096 452.273,908.781 452.428,909.515C456.225,927.48 462.226,933.383 465.463,940.507C469.05,948.401 458.91,933.928 458.07,932.921C444.252,916.342 432.129,900.055 429.955,897.135C406.972,866.258 365.676,804.03 339.971,706.413C339.065,702.973 339.859,702.784 338.24,699.636C336.537,696.321 327.309,650.653 326.486,643.502C322.124,605.582 321.728,591.072 321.603,586.496C319.872,523.004 335.046,446.446 348.76,399.563C350.126,393.964 350.059,394.033 351.597,388.525C365.584,338.433 365.145,330.806 368.631,320.579Z" style="fill:rgb(238,239,233);"/>
            <path d="M189.678,821.762C189.436,821.484 188.896,821.623 188.654,821.345C188.582,821.263 191.688,798.425 211.441,777.446C233.064,754.482 234.045,755.516 254.991,731.951C279.409,704.481 312.945,689.264 308.968,695.648C306.543,699.543 294.265,695.357 275.628,732.564C255.69,772.367 250.258,778.729 218.734,795.922C208.169,801.684 196.651,809.06 189.678,821.762Z" style="fill:rgb(236,236,234);"/>
            <path d="M172.754,518.314C172.769,515.439 174.359,517.377 182.395,519.969C211.559,529.376 235.072,530.73 266.796,554.101C295.078,574.937 299.778,589.855 314.033,612.732C326.28,632.387 310.009,606.86 290.717,594.12C257.12,571.934 248.062,574.916 209.322,543.722C200.071,536.273 196.957,535.004 182.422,523.59C181.729,523.046 180.199,521.844 172.754,518.314Z" style="fill:rgb(241,241,236);"/>
            <path d="M173.251,521.312C178.286,522.843 186.646,530.377 216.111,551.997C240.306,569.749 240.727,568.981 267.228,582.986C299.975,600.291 317.232,620.682 312.499,619.516C309.936,618.884 311.306,616.248 296.499,610.503C279.763,604.008 245.655,605.089 219.717,582.27C217.031,579.907 205.514,569.774 191.929,547.243C179.572,526.748 177.716,528.134 173.251,521.312Z" style="fill:rgb(240,241,235);"/>
            <path d="M308.379,692.2C280.581,698.354 260.779,722.238 244.666,739.65C210.852,776.191 191.582,786.247 186.154,823.13L185.617,823.817C185.225,822.9 184.284,820.702 183.754,811.491C183.68,810.211 183.194,801.773 184.023,795.457C189.512,753.671 214.926,736.716 261.214,708.069C290.495,689.947 318.552,688.392 308.379,692.2Z" style="fill:rgb(236,236,234);"/>
            <path d="M376.599,141.768C376.922,141.938 377.622,141.362 378.079,143.608C383.045,167.961 389.711,201.78 383.057,243.648C383.035,243.788 383.033,243.777 382.732,245.399C381.974,244.868 381.216,244.337 380.458,243.806C381.307,241.353 381.164,241.341 383.468,211.498C384.892,193.048 376.247,148.292 375.765,142.574C376.043,142.305 376.321,142.037 376.599,141.768Z" style="fill:rgb(60,57,51);"/>
            <path d="M370.022,306.4C372.462,305.566 372.438,305.45 372.655,305.5C373.202,305.625 372.899,305.893 371.587,312.425C369.402,314.075 370.02,314.503 368.631,320.579C365.145,330.806 365.584,338.433 351.597,388.525C350.059,394.033 350.126,393.964 348.76,399.563L348.976,398.601C348.552,398.007 347.507,398.094 347.083,397.5C346.706,396.971 351.702,379.001 352.146,377.404C361.956,342.116 360.503,341.816 370.022,306.4Z" style="fill:rgb(72,68,62);"/>
            <path d="M378.571,49.374C379.324,49.419 379.379,48.799 380.507,49.489C380.905,49.733 381.142,50.191 381.54,50.434C370.835,70.322 370.862,97.336 370.866,101.511C370.881,116.078 377.21,131.815 373.739,132.134C373.327,132.172 366.732,110.643 368.624,91.511C371.388,63.57 376.22,56.814 378.518,51.503C378.979,50.438 378.544,50.459 378.571,49.374Z" style="fill:rgb(74,72,64);"/>
            <path d="M455.539,907.537C464.887,914.365 478.881,959.4 471.89,947.172C463.154,931.89 454.735,915.836 455.539,907.537Z" style="fill:rgb(238,238,233);"/>
            <path d="M371.587,312.425C371.364,317.488 370.352,319.548 369.926,321.228L368.631,320.579C370.02,314.503 369.402,314.075 371.587,312.425Z" style="fill:rgb(162,159,149);"/>
            <path d="M339.66,541.495L340.432,541.618C337.912,544.722 336.919,545.051 336.516,545.184C336.089,545.325 335.818,544.297 335.391,544.438C337.321,542.366 337.208,542.2 339.66,541.495Z" style="fill:rgb(76,71,68);"/>
            <path d="M512.565,540.537C514.237,539.876 514.231,539.757 514.371,539.824C515.448,540.338 513.152,544.088 512.565,540.537Z" style="fill:rgb(201,200,196);"/>
            <path d="M320.732,517.424C320.845,517.775 320.949,517.658 321.059,517.998C321.591,519.647 322.118,518.304 322.337,518.367C322.314,518.782 322.883,519.084 322.861,519.5C322.615,524.006 320.797,517.652 320.732,517.424Z" style="fill:rgb(108,105,100);"/>
            <path d="M320.639,527.438C320.724,527.627 322.394,531.362 320.5,530.026C320.331,529.906 320.064,529.719 320.639,527.438Z" style="fill:rgb(51,43,40);"/>
            <path d="M321.713,621.686C321.555,623.175 321.662,623.245 321.542,623.294C321.542,623.294 320.599,622.545 320.517,622.48L321.713,621.686Z" style="fill:rgb(121,119,116);"/>
            <path d="M316.463,692.704C316.588,692.768 318.03,693.5 318.03,693.5C318.03,694.762 317.637,693.301 316.463,692.704Z" style="fill:rgb(42,38,36);"/>
            <path d="M170.812,517.256C169.982,516.692 168.861,517.163 169.619,516.446C170.035,516.053 170.441,516.329 170.5,516.368C170.988,516.699 170.369,516.955 170.812,517.256Z" style="fill:rgb(54,55,51);"/>
        </g>
    </g>
</svg>
